<mxfile host="app.diagrams.net" agent="Mozilla/5.0 (Windows NT 10.0; Win64; x64) AppleWebKit/537.36 (KHTML, like Gecko) Chrome/131.0.0.0 Safari/537.36" version="26.0.5">
  <diagram id="C5RBs43oDa-KdzZeNtuy" name="Page-1">
    <mxGraphModel dx="1510" dy="368" grid="1" gridSize="10" guides="1" tooltips="1" connect="1" arrows="1" fold="1" page="1" pageScale="1" pageWidth="827" pageHeight="1169" math="0" shadow="0">
      <root>
        <mxCell id="WIyWlLk6GJQsqaUBKTNV-0" />
        <mxCell id="WIyWlLk6GJQsqaUBKTNV-1" parent="WIyWlLk6GJQsqaUBKTNV-0" />
        <mxCell id="SByoHHInyNc2L9neysQm-4" style="edgeStyle=orthogonalEdgeStyle;rounded=0;orthogonalLoop=1;jettySize=auto;html=1;" edge="1" parent="WIyWlLk6GJQsqaUBKTNV-1" source="SByoHHInyNc2L9neysQm-0" target="SByoHHInyNc2L9neysQm-3">
          <mxGeometry relative="1" as="geometry" />
        </mxCell>
        <mxCell id="SByoHHInyNc2L9neysQm-0" value="C, C++" style="rounded=1;whiteSpace=wrap;html=1;" vertex="1" parent="WIyWlLk6GJQsqaUBKTNV-1">
          <mxGeometry x="20" y="20" width="120" height="60" as="geometry" />
        </mxCell>
        <mxCell id="SByoHHInyNc2L9neysQm-1" value="기계어" style="rounded=1;whiteSpace=wrap;html=1;" vertex="1" parent="WIyWlLk6GJQsqaUBKTNV-1">
          <mxGeometry x="20" y="270" width="120" height="60" as="geometry" />
        </mxCell>
        <mxCell id="SByoHHInyNc2L9neysQm-3" value="어셈블리어" style="rounded=1;whiteSpace=wrap;html=1;" vertex="1" parent="WIyWlLk6GJQsqaUBKTNV-1">
          <mxGeometry x="20" y="170" width="120" height="60" as="geometry" />
        </mxCell>
        <mxCell id="SByoHHInyNc2L9neysQm-5" style="edgeStyle=orthogonalEdgeStyle;rounded=0;orthogonalLoop=1;jettySize=auto;html=1;entryX=0.495;entryY=0.089;entryDx=0;entryDy=0;entryPerimeter=0;" edge="1" parent="WIyWlLk6GJQsqaUBKTNV-1" source="SByoHHInyNc2L9neysQm-3" target="SByoHHInyNc2L9neysQm-1">
          <mxGeometry relative="1" as="geometry" />
        </mxCell>
        <mxCell id="SByoHHInyNc2L9neysQm-6" value="OS" style="text;html=1;align=center;verticalAlign=middle;whiteSpace=wrap;rounded=0;" vertex="1" parent="WIyWlLk6GJQsqaUBKTNV-1">
          <mxGeometry x="-50" y="185" width="60" height="30" as="geometry" />
        </mxCell>
        <mxCell id="SByoHHInyNc2L9neysQm-7" value="User" style="text;html=1;align=center;verticalAlign=middle;whiteSpace=wrap;rounded=0;" vertex="1" parent="WIyWlLk6GJQsqaUBKTNV-1">
          <mxGeometry x="-50" y="45" width="60" height="30" as="geometry" />
        </mxCell>
        <mxCell id="SByoHHInyNc2L9neysQm-8" value="CPU" style="text;html=1;align=center;verticalAlign=middle;whiteSpace=wrap;rounded=0;" vertex="1" parent="WIyWlLk6GJQsqaUBKTNV-1">
          <mxGeometry x="-50" y="285" width="60" height="30" as="geometry" />
        </mxCell>
        <mxCell id="SByoHHInyNc2L9neysQm-15" style="edgeStyle=orthogonalEdgeStyle;rounded=0;orthogonalLoop=1;jettySize=auto;html=1;entryX=1;entryY=0.5;entryDx=0;entryDy=0;" edge="1" parent="WIyWlLk6GJQsqaUBKTNV-1" source="SByoHHInyNc2L9neysQm-9" target="SByoHHInyNc2L9neysQm-3">
          <mxGeometry relative="1" as="geometry">
            <Array as="points">
              <mxPoint x="250" y="200" />
            </Array>
          </mxGeometry>
        </mxCell>
        <mxCell id="SByoHHInyNc2L9neysQm-9" value="IL&lt;div&gt;(Intermediate&lt;/div&gt;&lt;div&gt;Language)&lt;/div&gt;" style="rounded=1;whiteSpace=wrap;html=1;" vertex="1" parent="WIyWlLk6GJQsqaUBKTNV-1">
          <mxGeometry x="200" y="100" width="120" height="60" as="geometry" />
        </mxCell>
        <mxCell id="SByoHHInyNc2L9neysQm-10" value="JIT(Just-In-Time)&lt;div&gt;Compile&lt;/div&gt;" style="text;html=1;align=center;verticalAlign=middle;whiteSpace=wrap;rounded=0;" vertex="1" parent="WIyWlLk6GJQsqaUBKTNV-1">
          <mxGeometry x="230" y="200" width="120" height="30" as="geometry" />
        </mxCell>
        <mxCell id="SByoHHInyNc2L9neysQm-13" style="edgeStyle=orthogonalEdgeStyle;rounded=0;orthogonalLoop=1;jettySize=auto;html=1;entryX=0.5;entryY=0;entryDx=0;entryDy=0;" edge="1" parent="WIyWlLk6GJQsqaUBKTNV-1" source="SByoHHInyNc2L9neysQm-11" target="SByoHHInyNc2L9neysQm-9">
          <mxGeometry relative="1" as="geometry" />
        </mxCell>
        <mxCell id="SByoHHInyNc2L9neysQm-11" value="C#, Java" style="rounded=1;whiteSpace=wrap;html=1;" vertex="1" parent="WIyWlLk6GJQsqaUBKTNV-1">
          <mxGeometry x="200" y="20" width="120" height="60" as="geometry" />
        </mxCell>
        <mxCell id="SByoHHInyNc2L9neysQm-16" value="Virtual&lt;div&gt;Machine&lt;/div&gt;" style="text;html=1;align=center;verticalAlign=middle;whiteSpace=wrap;rounded=0;" vertex="1" parent="WIyWlLk6GJQsqaUBKTNV-1">
          <mxGeometry x="140" y="115" width="60" height="30" as="geometry" />
        </mxCell>
        <mxCell id="SByoHHInyNc2L9neysQm-17" value="" style="rounded=1;whiteSpace=wrap;html=1;" vertex="1" parent="WIyWlLk6GJQsqaUBKTNV-1">
          <mxGeometry y="360" width="550" height="320" as="geometry" />
        </mxCell>
        <mxCell id="SByoHHInyNc2L9neysQm-18" value="" style="rounded=1;whiteSpace=wrap;html=1;" vertex="1" parent="WIyWlLk6GJQsqaUBKTNV-1">
          <mxGeometry x="30" y="370" width="150" height="300" as="geometry" />
        </mxCell>
        <mxCell id="SByoHHInyNc2L9neysQm-19" value="Scene" style="rounded=0;whiteSpace=wrap;html=1;" vertex="1" parent="WIyWlLk6GJQsqaUBKTNV-1">
          <mxGeometry x="65" y="370" width="75" height="20" as="geometry" />
        </mxCell>
        <mxCell id="SByoHHInyNc2L9neysQm-20" value="" style="rounded=1;whiteSpace=wrap;html=1;" vertex="1" parent="WIyWlLk6GJQsqaUBKTNV-1">
          <mxGeometry x="190" y="370" width="150" height="300" as="geometry" />
        </mxCell>
        <mxCell id="SByoHHInyNc2L9neysQm-21" value="Scene" style="rounded=0;whiteSpace=wrap;html=1;" vertex="1" parent="WIyWlLk6GJQsqaUBKTNV-1">
          <mxGeometry x="225" y="370" width="75" height="20" as="geometry" />
        </mxCell>
        <mxCell id="SByoHHInyNc2L9neysQm-24" value="" style="rounded=1;whiteSpace=wrap;html=1;" vertex="1" parent="WIyWlLk6GJQsqaUBKTNV-1">
          <mxGeometry x="350" y="370" width="150" height="300" as="geometry" />
        </mxCell>
        <mxCell id="SByoHHInyNc2L9neysQm-25" value="Scene" style="rounded=0;whiteSpace=wrap;html=1;" vertex="1" parent="WIyWlLk6GJQsqaUBKTNV-1">
          <mxGeometry x="387.5" y="370" width="75" height="20" as="geometry" />
        </mxCell>
        <mxCell id="SByoHHInyNc2L9neysQm-26" value="" style="rounded=1;whiteSpace=wrap;html=1;" vertex="1" parent="WIyWlLk6GJQsqaUBKTNV-1">
          <mxGeometry x="45" y="410" width="120" height="130" as="geometry" />
        </mxCell>
        <mxCell id="SByoHHInyNc2L9neysQm-27" value="GameObject" style="rounded=0;whiteSpace=wrap;html=1;" vertex="1" parent="WIyWlLk6GJQsqaUBKTNV-1">
          <mxGeometry x="50" y="410" width="80" height="20" as="geometry" />
        </mxCell>
        <mxCell id="SByoHHInyNc2L9neysQm-28" value="" style="rounded=1;whiteSpace=wrap;html=1;" vertex="1" parent="WIyWlLk6GJQsqaUBKTNV-1">
          <mxGeometry x="42.5" y="560" width="120" height="90" as="geometry" />
        </mxCell>
        <mxCell id="SByoHHInyNc2L9neysQm-29" value="GameObject" style="rounded=0;whiteSpace=wrap;html=1;" vertex="1" parent="WIyWlLk6GJQsqaUBKTNV-1">
          <mxGeometry x="45" y="560" width="80" height="20" as="geometry" />
        </mxCell>
        <mxCell id="SByoHHInyNc2L9neysQm-30" value="CPU" style="rounded=1;whiteSpace=wrap;html=1;" vertex="1" parent="WIyWlLk6GJQsqaUBKTNV-1">
          <mxGeometry x="640" y="350" width="120" height="60" as="geometry" />
        </mxCell>
        <mxCell id="SByoHHInyNc2L9neysQm-31" value="GPU" style="rounded=1;whiteSpace=wrap;html=1;" vertex="1" parent="WIyWlLk6GJQsqaUBKTNV-1">
          <mxGeometry x="900" y="350" width="120" height="60" as="geometry" />
        </mxCell>
        <mxCell id="SByoHHInyNc2L9neysQm-32" value="&lt;div&gt;Shader 관련 에셋 로드&lt;/div&gt;Vertex buffer" style="rounded=0;whiteSpace=wrap;html=1;" vertex="1" parent="WIyWlLk6GJQsqaUBKTNV-1">
          <mxGeometry x="610" y="450" width="140" height="50" as="geometry" />
        </mxCell>
        <mxCell id="SByoHHInyNc2L9neysQm-33" style="edgeStyle=orthogonalEdgeStyle;rounded=0;orthogonalLoop=1;jettySize=auto;html=1;entryX=0.045;entryY=0.495;entryDx=0;entryDy=0;entryPerimeter=0;" edge="1" parent="WIyWlLk6GJQsqaUBKTNV-1" source="SByoHHInyNc2L9neysQm-30" target="SByoHHInyNc2L9neysQm-31">
          <mxGeometry relative="1" as="geometry" />
        </mxCell>
        <mxCell id="SByoHHInyNc2L9neysQm-34" value="드로우콜" style="text;html=1;align=center;verticalAlign=middle;whiteSpace=wrap;rounded=0;" vertex="1" parent="WIyWlLk6GJQsqaUBKTNV-1">
          <mxGeometry x="810" y="340" width="60" height="30" as="geometry" />
        </mxCell>
        <mxCell id="SByoHHInyNc2L9neysQm-35" value="Vertex Shader" style="rounded=0;whiteSpace=wrap;html=1;" vertex="1" parent="WIyWlLk6GJQsqaUBKTNV-1">
          <mxGeometry x="870" y="450" width="140" height="50" as="geometry" />
        </mxCell>
        <mxCell id="SByoHHInyNc2L9neysQm-36" value="Culling 수행" style="text;html=1;align=center;verticalAlign=middle;whiteSpace=wrap;rounded=0;" vertex="1" parent="WIyWlLk6GJQsqaUBKTNV-1">
          <mxGeometry x="640" y="520" width="110" height="30" as="geometry" />
        </mxCell>
        <mxCell id="SByoHHInyNc2L9neysQm-37" value="Model (Local) space -&amp;gt; World space" style="rounded=0;whiteSpace=wrap;html=1;" vertex="1" parent="WIyWlLk6GJQsqaUBKTNV-1">
          <mxGeometry x="1020" y="450" width="250" height="50" as="geometry" />
        </mxCell>
        <mxCell id="SByoHHInyNc2L9neysQm-38" value="World space -&amp;gt; View space" style="rounded=0;whiteSpace=wrap;html=1;" vertex="1" parent="WIyWlLk6GJQsqaUBKTNV-1">
          <mxGeometry x="1020" y="510" width="250" height="50" as="geometry" />
        </mxCell>
        <mxCell id="SByoHHInyNc2L9neysQm-39" value="View space -&amp;gt; Clipping space" style="rounded=0;whiteSpace=wrap;html=1;" vertex="1" parent="WIyWlLk6GJQsqaUBKTNV-1">
          <mxGeometry x="1020" y="570" width="250" height="50" as="geometry" />
        </mxCell>
        <mxCell id="SByoHHInyNc2L9neysQm-40" value="Tessellation Shader" style="rounded=0;whiteSpace=wrap;html=1;dashed=1;dashPattern=8 8;" vertex="1" parent="WIyWlLk6GJQsqaUBKTNV-1">
          <mxGeometry x="870" y="640" width="140" height="50" as="geometry" />
        </mxCell>
        <mxCell id="SByoHHInyNc2L9neysQm-42" value="Mesh 의 더 부드러운 표현과같은&lt;div&gt;디테일을 살리기위해 세부화시킴&lt;/div&gt;" style="rounded=0;whiteSpace=wrap;html=1;" vertex="1" parent="WIyWlLk6GJQsqaUBKTNV-1">
          <mxGeometry x="1020" y="640" width="250" height="50" as="geometry" />
        </mxCell>
        <mxCell id="SByoHHInyNc2L9neysQm-43" value="Clipping" style="rounded=0;whiteSpace=wrap;html=1;" vertex="1" parent="WIyWlLk6GJQsqaUBKTNV-1">
          <mxGeometry x="870" y="700" width="140" height="50" as="geometry" />
        </mxCell>
        <mxCell id="SByoHHInyNc2L9neysQm-44" value="절두체 바깥에있는 / 일부분을 제거함." style="rounded=0;whiteSpace=wrap;html=1;" vertex="1" parent="WIyWlLk6GJQsqaUBKTNV-1">
          <mxGeometry x="1020" y="700" width="250" height="50" as="geometry" />
        </mxCell>
        <mxCell id="SByoHHInyNc2L9neysQm-45" value="Backface Culling" style="rounded=0;whiteSpace=wrap;html=1;" vertex="1" parent="WIyWlLk6GJQsqaUBKTNV-1">
          <mxGeometry x="870" y="760" width="140" height="50" as="geometry" />
        </mxCell>
        <mxCell id="SByoHHInyNc2L9neysQm-46" value="법선벡터가 카메라를 향하지 않는 정점데이터를제외" style="rounded=0;whiteSpace=wrap;html=1;" vertex="1" parent="WIyWlLk6GJQsqaUBKTNV-1">
          <mxGeometry x="1020" y="760" width="250" height="50" as="geometry" />
        </mxCell>
        <mxCell id="SByoHHInyNc2L9neysQm-48" value="Viewport" style="rounded=0;whiteSpace=wrap;html=1;" vertex="1" parent="WIyWlLk6GJQsqaUBKTNV-1">
          <mxGeometry x="1330" y="450" width="140" height="50" as="geometry" />
        </mxCell>
        <mxCell id="SByoHHInyNc2L9neysQm-49" value="실제 화면 스크린 좌표계로변환" style="rounded=0;whiteSpace=wrap;html=1;" vertex="1" parent="WIyWlLk6GJQsqaUBKTNV-1">
          <mxGeometry x="1480" y="450" width="250" height="50" as="geometry" />
        </mxCell>
        <mxCell id="SByoHHInyNc2L9neysQm-50" value="Rasterization&lt;div&gt;(픽셀출력에 사용할 단위(fragment)로 변환)&lt;/div&gt;" style="rounded=0;whiteSpace=wrap;html=1;" vertex="1" parent="WIyWlLk6GJQsqaUBKTNV-1">
          <mxGeometry x="1330" y="510" width="140" height="50" as="geometry" />
        </mxCell>
        <mxCell id="SByoHHInyNc2L9neysQm-52" value="" style="rounded=0;whiteSpace=wrap;html=1;" vertex="1" parent="WIyWlLk6GJQsqaUBKTNV-1">
          <mxGeometry x="1480" y="510" width="100" height="100" as="geometry" />
        </mxCell>
        <mxCell id="SByoHHInyNc2L9neysQm-53" value="" style="shape=cube;whiteSpace=wrap;html=1;boundedLbl=1;backgroundOutline=1;darkOpacity=0.05;darkOpacity2=0.1;fillColor=#60a917;fontColor=#ffffff;strokeColor=#2D7600;" vertex="1" parent="WIyWlLk6GJQsqaUBKTNV-1">
          <mxGeometry x="1490" y="530" width="70" height="70" as="geometry" />
        </mxCell>
        <mxCell id="SByoHHInyNc2L9neysQm-54" value="" style="whiteSpace=wrap;html=1;aspect=fixed;" vertex="1" parent="WIyWlLk6GJQsqaUBKTNV-1">
          <mxGeometry x="1590" y="510" width="10" height="10" as="geometry" />
        </mxCell>
        <mxCell id="SByoHHInyNc2L9neysQm-55" value="" style="whiteSpace=wrap;html=1;aspect=fixed;" vertex="1" parent="WIyWlLk6GJQsqaUBKTNV-1">
          <mxGeometry x="1600" y="510" width="10" height="10" as="geometry" />
        </mxCell>
        <mxCell id="SByoHHInyNc2L9neysQm-56" value="" style="whiteSpace=wrap;html=1;aspect=fixed;" vertex="1" parent="WIyWlLk6GJQsqaUBKTNV-1">
          <mxGeometry x="1610" y="510" width="10" height="10" as="geometry" />
        </mxCell>
        <mxCell id="SByoHHInyNc2L9neysQm-57" value="" style="whiteSpace=wrap;html=1;aspect=fixed;" vertex="1" parent="WIyWlLk6GJQsqaUBKTNV-1">
          <mxGeometry x="1620" y="510" width="10" height="10" as="geometry" />
        </mxCell>
        <mxCell id="SByoHHInyNc2L9neysQm-58" value="" style="whiteSpace=wrap;html=1;aspect=fixed;" vertex="1" parent="WIyWlLk6GJQsqaUBKTNV-1">
          <mxGeometry x="1630" y="510" width="10" height="10" as="geometry" />
        </mxCell>
        <mxCell id="SByoHHInyNc2L9neysQm-59" value="" style="whiteSpace=wrap;html=1;aspect=fixed;" vertex="1" parent="WIyWlLk6GJQsqaUBKTNV-1">
          <mxGeometry x="1640" y="510" width="10" height="10" as="geometry" />
        </mxCell>
        <mxCell id="SByoHHInyNc2L9neysQm-60" value="" style="whiteSpace=wrap;html=1;aspect=fixed;" vertex="1" parent="WIyWlLk6GJQsqaUBKTNV-1">
          <mxGeometry x="1650" y="510" width="10" height="10" as="geometry" />
        </mxCell>
        <mxCell id="SByoHHInyNc2L9neysQm-61" value="" style="whiteSpace=wrap;html=1;aspect=fixed;" vertex="1" parent="WIyWlLk6GJQsqaUBKTNV-1">
          <mxGeometry x="1660" y="510" width="10" height="10" as="geometry" />
        </mxCell>
        <mxCell id="SByoHHInyNc2L9neysQm-62" value="" style="whiteSpace=wrap;html=1;aspect=fixed;" vertex="1" parent="WIyWlLk6GJQsqaUBKTNV-1">
          <mxGeometry x="1670" y="510" width="10" height="10" as="geometry" />
        </mxCell>
        <mxCell id="SByoHHInyNc2L9neysQm-63" value="" style="whiteSpace=wrap;html=1;aspect=fixed;" vertex="1" parent="WIyWlLk6GJQsqaUBKTNV-1">
          <mxGeometry x="1680" y="510" width="10" height="10" as="geometry" />
        </mxCell>
        <mxCell id="SByoHHInyNc2L9neysQm-70" value="" style="whiteSpace=wrap;html=1;aspect=fixed;" vertex="1" parent="WIyWlLk6GJQsqaUBKTNV-1">
          <mxGeometry x="1590" y="520" width="10" height="10" as="geometry" />
        </mxCell>
        <mxCell id="SByoHHInyNc2L9neysQm-71" value="" style="whiteSpace=wrap;html=1;aspect=fixed;fillColor=#60a917;fontColor=#ffffff;strokeColor=#2D7600;" vertex="1" parent="WIyWlLk6GJQsqaUBKTNV-1">
          <mxGeometry x="1600" y="520" width="10" height="10" as="geometry" />
        </mxCell>
        <mxCell id="SByoHHInyNc2L9neysQm-72" value="" style="whiteSpace=wrap;html=1;aspect=fixed;fillColor=#60a917;fontColor=#ffffff;strokeColor=#2D7600;" vertex="1" parent="WIyWlLk6GJQsqaUBKTNV-1">
          <mxGeometry x="1610" y="520" width="10" height="10" as="geometry" />
        </mxCell>
        <mxCell id="SByoHHInyNc2L9neysQm-73" value="" style="whiteSpace=wrap;html=1;aspect=fixed;fillColor=#60a917;fontColor=#ffffff;strokeColor=#2D7600;" vertex="1" parent="WIyWlLk6GJQsqaUBKTNV-1">
          <mxGeometry x="1620" y="520" width="10" height="10" as="geometry" />
        </mxCell>
        <mxCell id="SByoHHInyNc2L9neysQm-74" value="" style="whiteSpace=wrap;html=1;aspect=fixed;fillColor=#60a917;fontColor=#ffffff;strokeColor=#2D7600;" vertex="1" parent="WIyWlLk6GJQsqaUBKTNV-1">
          <mxGeometry x="1630" y="520" width="10" height="10" as="geometry" />
        </mxCell>
        <mxCell id="SByoHHInyNc2L9neysQm-75" value="" style="whiteSpace=wrap;html=1;aspect=fixed;fillColor=#60a917;fontColor=#ffffff;strokeColor=#2D7600;" vertex="1" parent="WIyWlLk6GJQsqaUBKTNV-1">
          <mxGeometry x="1640" y="520" width="10" height="10" as="geometry" />
        </mxCell>
        <mxCell id="SByoHHInyNc2L9neysQm-76" value="" style="whiteSpace=wrap;html=1;aspect=fixed;fillColor=#60a917;fontColor=#ffffff;strokeColor=#2D7600;" vertex="1" parent="WIyWlLk6GJQsqaUBKTNV-1">
          <mxGeometry x="1650" y="520" width="10" height="10" as="geometry" />
        </mxCell>
        <mxCell id="SByoHHInyNc2L9neysQm-77" value="" style="whiteSpace=wrap;html=1;aspect=fixed;" vertex="1" parent="WIyWlLk6GJQsqaUBKTNV-1">
          <mxGeometry x="1660" y="520" width="10" height="10" as="geometry" />
        </mxCell>
        <mxCell id="SByoHHInyNc2L9neysQm-78" value="" style="whiteSpace=wrap;html=1;aspect=fixed;" vertex="1" parent="WIyWlLk6GJQsqaUBKTNV-1">
          <mxGeometry x="1670" y="520" width="10" height="10" as="geometry" />
        </mxCell>
        <mxCell id="SByoHHInyNc2L9neysQm-79" value="" style="whiteSpace=wrap;html=1;aspect=fixed;" vertex="1" parent="WIyWlLk6GJQsqaUBKTNV-1">
          <mxGeometry x="1680" y="520" width="10" height="10" as="geometry" />
        </mxCell>
        <mxCell id="SByoHHInyNc2L9neysQm-85" value="" style="whiteSpace=wrap;html=1;aspect=fixed;" vertex="1" parent="WIyWlLk6GJQsqaUBKTNV-1">
          <mxGeometry x="1590" y="530" width="10" height="10" as="geometry" />
        </mxCell>
        <mxCell id="SByoHHInyNc2L9neysQm-86" value="" style="whiteSpace=wrap;html=1;aspect=fixed;fillColor=#60a917;fontColor=#ffffff;strokeColor=#2D7600;" vertex="1" parent="WIyWlLk6GJQsqaUBKTNV-1">
          <mxGeometry x="1600" y="530" width="10" height="10" as="geometry" />
        </mxCell>
        <mxCell id="SByoHHInyNc2L9neysQm-87" value="" style="whiteSpace=wrap;html=1;aspect=fixed;fillColor=#60a917;fontColor=#ffffff;strokeColor=#2D7600;" vertex="1" parent="WIyWlLk6GJQsqaUBKTNV-1">
          <mxGeometry x="1610" y="530" width="10" height="10" as="geometry" />
        </mxCell>
        <mxCell id="SByoHHInyNc2L9neysQm-88" value="" style="whiteSpace=wrap;html=1;aspect=fixed;fillColor=#008a00;fontColor=#ffffff;strokeColor=#005700;" vertex="1" parent="WIyWlLk6GJQsqaUBKTNV-1">
          <mxGeometry x="1620" y="530" width="10" height="10" as="geometry" />
        </mxCell>
        <mxCell id="SByoHHInyNc2L9neysQm-89" value="" style="whiteSpace=wrap;html=1;aspect=fixed;fillColor=#008a00;fontColor=#ffffff;strokeColor=#005700;" vertex="1" parent="WIyWlLk6GJQsqaUBKTNV-1">
          <mxGeometry x="1630" y="530" width="10" height="10" as="geometry" />
        </mxCell>
        <mxCell id="SByoHHInyNc2L9neysQm-90" value="" style="whiteSpace=wrap;html=1;aspect=fixed;fillColor=#008a00;fontColor=#ffffff;strokeColor=#005700;" vertex="1" parent="WIyWlLk6GJQsqaUBKTNV-1">
          <mxGeometry x="1640" y="530" width="10" height="10" as="geometry" />
        </mxCell>
        <mxCell id="SByoHHInyNc2L9neysQm-91" value="" style="whiteSpace=wrap;html=1;aspect=fixed;fillColor=#008a00;fontColor=#ffffff;strokeColor=#005700;" vertex="1" parent="WIyWlLk6GJQsqaUBKTNV-1">
          <mxGeometry x="1650" y="530" width="10" height="10" as="geometry" />
        </mxCell>
        <mxCell id="SByoHHInyNc2L9neysQm-92" value="" style="whiteSpace=wrap;html=1;aspect=fixed;fillColor=#60a917;fontColor=#ffffff;strokeColor=#2D7600;" vertex="1" parent="WIyWlLk6GJQsqaUBKTNV-1">
          <mxGeometry x="1660" y="530" width="10" height="10" as="geometry" />
        </mxCell>
        <mxCell id="SByoHHInyNc2L9neysQm-93" value="" style="whiteSpace=wrap;html=1;aspect=fixed;" vertex="1" parent="WIyWlLk6GJQsqaUBKTNV-1">
          <mxGeometry x="1670" y="530" width="10" height="10" as="geometry" />
        </mxCell>
        <mxCell id="SByoHHInyNc2L9neysQm-94" value="" style="whiteSpace=wrap;html=1;aspect=fixed;" vertex="1" parent="WIyWlLk6GJQsqaUBKTNV-1">
          <mxGeometry x="1680" y="530" width="10" height="10" as="geometry" />
        </mxCell>
        <mxCell id="SByoHHInyNc2L9neysQm-100" value="" style="whiteSpace=wrap;html=1;aspect=fixed;" vertex="1" parent="WIyWlLk6GJQsqaUBKTNV-1">
          <mxGeometry x="1590" y="540" width="10" height="10" as="geometry" />
        </mxCell>
        <mxCell id="SByoHHInyNc2L9neysQm-101" value="" style="whiteSpace=wrap;html=1;aspect=fixed;fillColor=#60a917;fontColor=#ffffff;strokeColor=#2D7600;" vertex="1" parent="WIyWlLk6GJQsqaUBKTNV-1">
          <mxGeometry x="1600" y="540" width="10" height="10" as="geometry" />
        </mxCell>
        <mxCell id="SByoHHInyNc2L9neysQm-102" value="" style="whiteSpace=wrap;html=1;aspect=fixed;fillColor=#008a00;fontColor=#ffffff;strokeColor=#005700;" vertex="1" parent="WIyWlLk6GJQsqaUBKTNV-1">
          <mxGeometry x="1610" y="540" width="10" height="10" as="geometry" />
        </mxCell>
        <mxCell id="SByoHHInyNc2L9neysQm-103" value="" style="whiteSpace=wrap;html=1;aspect=fixed;fillColor=#60a917;fontColor=#ffffff;strokeColor=#2D7600;" vertex="1" parent="WIyWlLk6GJQsqaUBKTNV-1">
          <mxGeometry x="1620" y="540" width="10" height="10" as="geometry" />
        </mxCell>
        <mxCell id="SByoHHInyNc2L9neysQm-104" value="" style="whiteSpace=wrap;html=1;aspect=fixed;fillColor=#60a917;fontColor=#ffffff;strokeColor=#2D7600;" vertex="1" parent="WIyWlLk6GJQsqaUBKTNV-1">
          <mxGeometry x="1630" y="540" width="10" height="10" as="geometry" />
        </mxCell>
        <mxCell id="SByoHHInyNc2L9neysQm-105" value="" style="whiteSpace=wrap;html=1;aspect=fixed;fillColor=#60a917;fontColor=#ffffff;strokeColor=#2D7600;" vertex="1" parent="WIyWlLk6GJQsqaUBKTNV-1">
          <mxGeometry x="1640" y="540" width="10" height="10" as="geometry" />
        </mxCell>
        <mxCell id="SByoHHInyNc2L9neysQm-106" value="" style="whiteSpace=wrap;html=1;aspect=fixed;fillColor=#60a917;fontColor=#ffffff;strokeColor=#2D7600;" vertex="1" parent="WIyWlLk6GJQsqaUBKTNV-1">
          <mxGeometry x="1650" y="540" width="10" height="10" as="geometry" />
        </mxCell>
        <mxCell id="SByoHHInyNc2L9neysQm-107" value="" style="whiteSpace=wrap;html=1;aspect=fixed;fillColor=#60a917;fontColor=#ffffff;strokeColor=#2D7600;" vertex="1" parent="WIyWlLk6GJQsqaUBKTNV-1">
          <mxGeometry x="1660" y="540" width="10" height="10" as="geometry" />
        </mxCell>
        <mxCell id="SByoHHInyNc2L9neysQm-108" value="" style="whiteSpace=wrap;html=1;aspect=fixed;fillColor=#60a917;fontColor=#ffffff;strokeColor=#2D7600;" vertex="1" parent="WIyWlLk6GJQsqaUBKTNV-1">
          <mxGeometry x="1670" y="540" width="10" height="10" as="geometry" />
        </mxCell>
        <mxCell id="SByoHHInyNc2L9neysQm-109" value="" style="whiteSpace=wrap;html=1;aspect=fixed;" vertex="1" parent="WIyWlLk6GJQsqaUBKTNV-1">
          <mxGeometry x="1680" y="540" width="10" height="10" as="geometry" />
        </mxCell>
        <mxCell id="SByoHHInyNc2L9neysQm-115" value="" style="whiteSpace=wrap;html=1;aspect=fixed;" vertex="1" parent="WIyWlLk6GJQsqaUBKTNV-1">
          <mxGeometry x="1590" y="550" width="10" height="10" as="geometry" />
        </mxCell>
        <mxCell id="SByoHHInyNc2L9neysQm-116" value="" style="whiteSpace=wrap;html=1;aspect=fixed;fillColor=#60a917;fontColor=#ffffff;strokeColor=#2D7600;" vertex="1" parent="WIyWlLk6GJQsqaUBKTNV-1">
          <mxGeometry x="1600" y="550" width="10" height="10" as="geometry" />
        </mxCell>
        <mxCell id="SByoHHInyNc2L9neysQm-117" value="" style="whiteSpace=wrap;html=1;aspect=fixed;fillColor=#008a00;fontColor=#ffffff;strokeColor=#005700;" vertex="1" parent="WIyWlLk6GJQsqaUBKTNV-1">
          <mxGeometry x="1610" y="550" width="10" height="10" as="geometry" />
        </mxCell>
        <mxCell id="SByoHHInyNc2L9neysQm-118" value="" style="whiteSpace=wrap;html=1;aspect=fixed;fillColor=#008a00;fontColor=#ffffff;strokeColor=#005700;" vertex="1" parent="WIyWlLk6GJQsqaUBKTNV-1">
          <mxGeometry x="1620" y="550" width="10" height="10" as="geometry" />
        </mxCell>
        <mxCell id="SByoHHInyNc2L9neysQm-119" value="" style="whiteSpace=wrap;html=1;aspect=fixed;fillColor=#008a00;fontColor=#ffffff;strokeColor=#005700;" vertex="1" parent="WIyWlLk6GJQsqaUBKTNV-1">
          <mxGeometry x="1630" y="550" width="10" height="10" as="geometry" />
        </mxCell>
        <mxCell id="SByoHHInyNc2L9neysQm-120" value="" style="whiteSpace=wrap;html=1;aspect=fixed;fillColor=#008a00;fontColor=#ffffff;strokeColor=#005700;" vertex="1" parent="WIyWlLk6GJQsqaUBKTNV-1">
          <mxGeometry x="1640" y="550" width="10" height="10" as="geometry" />
        </mxCell>
        <mxCell id="SByoHHInyNc2L9neysQm-121" value="" style="whiteSpace=wrap;html=1;aspect=fixed;fillColor=#008a00;fontColor=#ffffff;strokeColor=#005700;" vertex="1" parent="WIyWlLk6GJQsqaUBKTNV-1">
          <mxGeometry x="1650" y="550" width="10" height="10" as="geometry" />
        </mxCell>
        <mxCell id="SByoHHInyNc2L9neysQm-122" value="" style="whiteSpace=wrap;html=1;aspect=fixed;fillColor=#008a00;fontColor=#ffffff;strokeColor=#005700;" vertex="1" parent="WIyWlLk6GJQsqaUBKTNV-1">
          <mxGeometry x="1660" y="550" width="10" height="10" as="geometry" />
        </mxCell>
        <mxCell id="SByoHHInyNc2L9neysQm-123" value="" style="whiteSpace=wrap;html=1;aspect=fixed;fillColor=#60a917;fontColor=#ffffff;strokeColor=#2D7600;" vertex="1" parent="WIyWlLk6GJQsqaUBKTNV-1">
          <mxGeometry x="1670" y="550" width="10" height="10" as="geometry" />
        </mxCell>
        <mxCell id="SByoHHInyNc2L9neysQm-124" value="" style="whiteSpace=wrap;html=1;aspect=fixed;" vertex="1" parent="WIyWlLk6GJQsqaUBKTNV-1">
          <mxGeometry x="1680" y="550" width="10" height="10" as="geometry" />
        </mxCell>
        <mxCell id="SByoHHInyNc2L9neysQm-130" value="" style="whiteSpace=wrap;html=1;aspect=fixed;" vertex="1" parent="WIyWlLk6GJQsqaUBKTNV-1">
          <mxGeometry x="1590" y="560" width="10" height="10" as="geometry" />
        </mxCell>
        <mxCell id="SByoHHInyNc2L9neysQm-131" value="" style="whiteSpace=wrap;html=1;aspect=fixed;fillColor=#60a917;fontColor=#ffffff;strokeColor=#2D7600;" vertex="1" parent="WIyWlLk6GJQsqaUBKTNV-1">
          <mxGeometry x="1600" y="560" width="10" height="10" as="geometry" />
        </mxCell>
        <mxCell id="SByoHHInyNc2L9neysQm-132" value="" style="whiteSpace=wrap;html=1;aspect=fixed;fillColor=#008a00;fontColor=#ffffff;strokeColor=#005700;" vertex="1" parent="WIyWlLk6GJQsqaUBKTNV-1">
          <mxGeometry x="1610" y="560" width="10" height="10" as="geometry" />
        </mxCell>
        <mxCell id="SByoHHInyNc2L9neysQm-133" value="" style="whiteSpace=wrap;html=1;aspect=fixed;fillColor=#008a00;fontColor=#ffffff;strokeColor=#005700;" vertex="1" parent="WIyWlLk6GJQsqaUBKTNV-1">
          <mxGeometry x="1620" y="560" width="10" height="10" as="geometry" />
        </mxCell>
        <mxCell id="SByoHHInyNc2L9neysQm-134" value="" style="whiteSpace=wrap;html=1;aspect=fixed;fillColor=#008a00;fontColor=#ffffff;strokeColor=#005700;" vertex="1" parent="WIyWlLk6GJQsqaUBKTNV-1">
          <mxGeometry x="1630" y="560" width="10" height="10" as="geometry" />
        </mxCell>
        <mxCell id="SByoHHInyNc2L9neysQm-135" value="" style="whiteSpace=wrap;html=1;aspect=fixed;fillColor=#008a00;fontColor=#ffffff;strokeColor=#005700;" vertex="1" parent="WIyWlLk6GJQsqaUBKTNV-1">
          <mxGeometry x="1640" y="560" width="10" height="10" as="geometry" />
        </mxCell>
        <mxCell id="SByoHHInyNc2L9neysQm-136" value="" style="whiteSpace=wrap;html=1;aspect=fixed;fillColor=#008a00;fontColor=#ffffff;strokeColor=#005700;" vertex="1" parent="WIyWlLk6GJQsqaUBKTNV-1">
          <mxGeometry x="1650" y="560" width="10" height="10" as="geometry" />
        </mxCell>
        <mxCell id="SByoHHInyNc2L9neysQm-137" value="" style="whiteSpace=wrap;html=1;aspect=fixed;fillColor=#008a00;fontColor=#ffffff;strokeColor=#005700;" vertex="1" parent="WIyWlLk6GJQsqaUBKTNV-1">
          <mxGeometry x="1660" y="560" width="10" height="10" as="geometry" />
        </mxCell>
        <mxCell id="SByoHHInyNc2L9neysQm-138" value="" style="whiteSpace=wrap;html=1;aspect=fixed;fillColor=#60a917;fontColor=#ffffff;strokeColor=#2D7600;" vertex="1" parent="WIyWlLk6GJQsqaUBKTNV-1">
          <mxGeometry x="1670" y="560" width="10" height="10" as="geometry" />
        </mxCell>
        <mxCell id="SByoHHInyNc2L9neysQm-139" value="" style="whiteSpace=wrap;html=1;aspect=fixed;" vertex="1" parent="WIyWlLk6GJQsqaUBKTNV-1">
          <mxGeometry x="1680" y="560" width="10" height="10" as="geometry" />
        </mxCell>
        <mxCell id="SByoHHInyNc2L9neysQm-145" value="" style="whiteSpace=wrap;html=1;aspect=fixed;" vertex="1" parent="WIyWlLk6GJQsqaUBKTNV-1">
          <mxGeometry x="1590" y="570" width="10" height="10" as="geometry" />
        </mxCell>
        <mxCell id="SByoHHInyNc2L9neysQm-146" value="" style="whiteSpace=wrap;html=1;aspect=fixed;fillColor=#60a917;fontColor=#ffffff;strokeColor=#2D7600;" vertex="1" parent="WIyWlLk6GJQsqaUBKTNV-1">
          <mxGeometry x="1600" y="570" width="10" height="10" as="geometry" />
        </mxCell>
        <mxCell id="SByoHHInyNc2L9neysQm-147" value="" style="whiteSpace=wrap;html=1;aspect=fixed;fillColor=#008a00;fontColor=#ffffff;strokeColor=#005700;" vertex="1" parent="WIyWlLk6GJQsqaUBKTNV-1">
          <mxGeometry x="1610" y="570" width="10" height="10" as="geometry" />
        </mxCell>
        <mxCell id="SByoHHInyNc2L9neysQm-148" value="" style="whiteSpace=wrap;html=1;aspect=fixed;fillColor=#008a00;fontColor=#ffffff;strokeColor=#005700;" vertex="1" parent="WIyWlLk6GJQsqaUBKTNV-1">
          <mxGeometry x="1620" y="570" width="10" height="10" as="geometry" />
        </mxCell>
        <mxCell id="SByoHHInyNc2L9neysQm-149" value="" style="whiteSpace=wrap;html=1;aspect=fixed;fillColor=#008a00;fontColor=#ffffff;strokeColor=#005700;" vertex="1" parent="WIyWlLk6GJQsqaUBKTNV-1">
          <mxGeometry x="1630" y="570" width="10" height="10" as="geometry" />
        </mxCell>
        <mxCell id="SByoHHInyNc2L9neysQm-150" value="" style="whiteSpace=wrap;html=1;aspect=fixed;fillColor=#008a00;fontColor=#ffffff;strokeColor=#005700;" vertex="1" parent="WIyWlLk6GJQsqaUBKTNV-1">
          <mxGeometry x="1640" y="570" width="10" height="10" as="geometry" />
        </mxCell>
        <mxCell id="SByoHHInyNc2L9neysQm-151" value="" style="whiteSpace=wrap;html=1;aspect=fixed;fillColor=#008a00;fontColor=#ffffff;strokeColor=#005700;" vertex="1" parent="WIyWlLk6GJQsqaUBKTNV-1">
          <mxGeometry x="1650" y="570" width="10" height="10" as="geometry" />
        </mxCell>
        <mxCell id="SByoHHInyNc2L9neysQm-152" value="" style="whiteSpace=wrap;html=1;aspect=fixed;fillColor=#008a00;fontColor=#ffffff;strokeColor=#005700;" vertex="1" parent="WIyWlLk6GJQsqaUBKTNV-1">
          <mxGeometry x="1660" y="570" width="10" height="10" as="geometry" />
        </mxCell>
        <mxCell id="SByoHHInyNc2L9neysQm-153" value="" style="whiteSpace=wrap;html=1;aspect=fixed;fillColor=#60a917;fontColor=#ffffff;strokeColor=#2D7600;" vertex="1" parent="WIyWlLk6GJQsqaUBKTNV-1">
          <mxGeometry x="1670" y="570" width="10" height="10" as="geometry" />
        </mxCell>
        <mxCell id="SByoHHInyNc2L9neysQm-154" value="" style="whiteSpace=wrap;html=1;aspect=fixed;" vertex="1" parent="WIyWlLk6GJQsqaUBKTNV-1">
          <mxGeometry x="1680" y="570" width="10" height="10" as="geometry" />
        </mxCell>
        <mxCell id="SByoHHInyNc2L9neysQm-160" value="" style="whiteSpace=wrap;html=1;aspect=fixed;" vertex="1" parent="WIyWlLk6GJQsqaUBKTNV-1">
          <mxGeometry x="1590" y="580" width="10" height="10" as="geometry" />
        </mxCell>
        <mxCell id="SByoHHInyNc2L9neysQm-161" value="" style="whiteSpace=wrap;html=1;aspect=fixed;fillColor=#60a917;fontColor=#ffffff;strokeColor=#2D7600;" vertex="1" parent="WIyWlLk6GJQsqaUBKTNV-1">
          <mxGeometry x="1600" y="580" width="10" height="10" as="geometry" />
        </mxCell>
        <mxCell id="SByoHHInyNc2L9neysQm-162" value="" style="whiteSpace=wrap;html=1;aspect=fixed;fillColor=#60a917;fontColor=#ffffff;strokeColor=#2D7600;" vertex="1" parent="WIyWlLk6GJQsqaUBKTNV-1">
          <mxGeometry x="1610" y="580" width="10" height="10" as="geometry" />
        </mxCell>
        <mxCell id="SByoHHInyNc2L9neysQm-163" value="" style="whiteSpace=wrap;html=1;aspect=fixed;fillColor=#008a00;fontColor=#ffffff;strokeColor=#005700;" vertex="1" parent="WIyWlLk6GJQsqaUBKTNV-1">
          <mxGeometry x="1620" y="580" width="10" height="10" as="geometry" />
        </mxCell>
        <mxCell id="SByoHHInyNc2L9neysQm-164" value="" style="whiteSpace=wrap;html=1;aspect=fixed;fillColor=#008a00;fontColor=#ffffff;strokeColor=#005700;" vertex="1" parent="WIyWlLk6GJQsqaUBKTNV-1">
          <mxGeometry x="1630" y="580" width="10" height="10" as="geometry" />
        </mxCell>
        <mxCell id="SByoHHInyNc2L9neysQm-165" value="" style="whiteSpace=wrap;html=1;aspect=fixed;fillColor=#008a00;fontColor=#ffffff;strokeColor=#005700;" vertex="1" parent="WIyWlLk6GJQsqaUBKTNV-1">
          <mxGeometry x="1640" y="580" width="10" height="10" as="geometry" />
        </mxCell>
        <mxCell id="SByoHHInyNc2L9neysQm-166" value="" style="whiteSpace=wrap;html=1;aspect=fixed;fillColor=#008a00;fontColor=#ffffff;strokeColor=#005700;" vertex="1" parent="WIyWlLk6GJQsqaUBKTNV-1">
          <mxGeometry x="1650" y="580" width="10" height="10" as="geometry" />
        </mxCell>
        <mxCell id="SByoHHInyNc2L9neysQm-167" value="" style="whiteSpace=wrap;html=1;aspect=fixed;fillColor=#008a00;fontColor=#ffffff;strokeColor=#005700;" vertex="1" parent="WIyWlLk6GJQsqaUBKTNV-1">
          <mxGeometry x="1660" y="580" width="10" height="10" as="geometry" />
        </mxCell>
        <mxCell id="SByoHHInyNc2L9neysQm-168" value="" style="whiteSpace=wrap;html=1;aspect=fixed;fillColor=#60a917;fontColor=#ffffff;strokeColor=#2D7600;" vertex="1" parent="WIyWlLk6GJQsqaUBKTNV-1">
          <mxGeometry x="1670" y="580" width="10" height="10" as="geometry" />
        </mxCell>
        <mxCell id="SByoHHInyNc2L9neysQm-169" value="" style="whiteSpace=wrap;html=1;aspect=fixed;" vertex="1" parent="WIyWlLk6GJQsqaUBKTNV-1">
          <mxGeometry x="1680" y="580" width="10" height="10" as="geometry" />
        </mxCell>
        <mxCell id="SByoHHInyNc2L9neysQm-175" value="" style="whiteSpace=wrap;html=1;aspect=fixed;" vertex="1" parent="WIyWlLk6GJQsqaUBKTNV-1">
          <mxGeometry x="1590" y="590" width="10" height="10" as="geometry" />
        </mxCell>
        <mxCell id="SByoHHInyNc2L9neysQm-176" value="" style="whiteSpace=wrap;html=1;aspect=fixed;" vertex="1" parent="WIyWlLk6GJQsqaUBKTNV-1">
          <mxGeometry x="1600" y="590" width="10" height="10" as="geometry" />
        </mxCell>
        <mxCell id="SByoHHInyNc2L9neysQm-177" value="" style="whiteSpace=wrap;html=1;aspect=fixed;" vertex="1" parent="WIyWlLk6GJQsqaUBKTNV-1">
          <mxGeometry x="1610" y="590" width="10" height="10" as="geometry" />
        </mxCell>
        <mxCell id="SByoHHInyNc2L9neysQm-178" value="" style="whiteSpace=wrap;html=1;aspect=fixed;fillColor=#60a917;fontColor=#ffffff;strokeColor=#2D7600;" vertex="1" parent="WIyWlLk6GJQsqaUBKTNV-1">
          <mxGeometry x="1620" y="590" width="10" height="10" as="geometry" />
        </mxCell>
        <mxCell id="SByoHHInyNc2L9neysQm-179" value="" style="whiteSpace=wrap;html=1;aspect=fixed;fillColor=#60a917;fontColor=#ffffff;strokeColor=#2D7600;" vertex="1" parent="WIyWlLk6GJQsqaUBKTNV-1">
          <mxGeometry x="1630" y="590" width="10" height="10" as="geometry" />
        </mxCell>
        <mxCell id="SByoHHInyNc2L9neysQm-180" value="" style="whiteSpace=wrap;html=1;aspect=fixed;fillColor=#60a917;fontColor=#ffffff;strokeColor=#2D7600;" vertex="1" parent="WIyWlLk6GJQsqaUBKTNV-1">
          <mxGeometry x="1640" y="590" width="10" height="10" as="geometry" />
        </mxCell>
        <mxCell id="SByoHHInyNc2L9neysQm-181" value="" style="whiteSpace=wrap;html=1;aspect=fixed;fillColor=#60a917;fontColor=#ffffff;strokeColor=#2D7600;" vertex="1" parent="WIyWlLk6GJQsqaUBKTNV-1">
          <mxGeometry x="1650" y="590" width="10" height="10" as="geometry" />
        </mxCell>
        <mxCell id="SByoHHInyNc2L9neysQm-182" value="" style="whiteSpace=wrap;html=1;aspect=fixed;fillColor=#60a917;fontColor=#ffffff;strokeColor=#2D7600;" vertex="1" parent="WIyWlLk6GJQsqaUBKTNV-1">
          <mxGeometry x="1660" y="590" width="10" height="10" as="geometry" />
        </mxCell>
        <mxCell id="SByoHHInyNc2L9neysQm-183" value="" style="whiteSpace=wrap;html=1;aspect=fixed;fillColor=#60a917;fontColor=#ffffff;strokeColor=#2D7600;" vertex="1" parent="WIyWlLk6GJQsqaUBKTNV-1">
          <mxGeometry x="1670" y="590" width="10" height="10" as="geometry" />
        </mxCell>
        <mxCell id="SByoHHInyNc2L9neysQm-184" value="" style="whiteSpace=wrap;html=1;aspect=fixed;" vertex="1" parent="WIyWlLk6GJQsqaUBKTNV-1">
          <mxGeometry x="1680" y="590" width="10" height="10" as="geometry" />
        </mxCell>
        <mxCell id="SByoHHInyNc2L9neysQm-190" value="" style="whiteSpace=wrap;html=1;aspect=fixed;" vertex="1" parent="WIyWlLk6GJQsqaUBKTNV-1">
          <mxGeometry x="1590" y="600" width="10" height="10" as="geometry" />
        </mxCell>
        <mxCell id="SByoHHInyNc2L9neysQm-191" value="" style="whiteSpace=wrap;html=1;aspect=fixed;" vertex="1" parent="WIyWlLk6GJQsqaUBKTNV-1">
          <mxGeometry x="1600" y="600" width="10" height="10" as="geometry" />
        </mxCell>
        <mxCell id="SByoHHInyNc2L9neysQm-192" value="" style="whiteSpace=wrap;html=1;aspect=fixed;" vertex="1" parent="WIyWlLk6GJQsqaUBKTNV-1">
          <mxGeometry x="1610" y="600" width="10" height="10" as="geometry" />
        </mxCell>
        <mxCell id="SByoHHInyNc2L9neysQm-193" value="" style="whiteSpace=wrap;html=1;aspect=fixed;" vertex="1" parent="WIyWlLk6GJQsqaUBKTNV-1">
          <mxGeometry x="1620" y="600" width="10" height="10" as="geometry" />
        </mxCell>
        <mxCell id="SByoHHInyNc2L9neysQm-194" value="" style="whiteSpace=wrap;html=1;aspect=fixed;" vertex="1" parent="WIyWlLk6GJQsqaUBKTNV-1">
          <mxGeometry x="1630" y="600" width="10" height="10" as="geometry" />
        </mxCell>
        <mxCell id="SByoHHInyNc2L9neysQm-195" value="" style="whiteSpace=wrap;html=1;aspect=fixed;" vertex="1" parent="WIyWlLk6GJQsqaUBKTNV-1">
          <mxGeometry x="1640" y="600" width="10" height="10" as="geometry" />
        </mxCell>
        <mxCell id="SByoHHInyNc2L9neysQm-196" value="" style="whiteSpace=wrap;html=1;aspect=fixed;" vertex="1" parent="WIyWlLk6GJQsqaUBKTNV-1">
          <mxGeometry x="1650" y="600" width="10" height="10" as="geometry" />
        </mxCell>
        <mxCell id="SByoHHInyNc2L9neysQm-197" value="" style="whiteSpace=wrap;html=1;aspect=fixed;" vertex="1" parent="WIyWlLk6GJQsqaUBKTNV-1">
          <mxGeometry x="1660" y="600" width="10" height="10" as="geometry" />
        </mxCell>
        <mxCell id="SByoHHInyNc2L9neysQm-198" value="" style="whiteSpace=wrap;html=1;aspect=fixed;" vertex="1" parent="WIyWlLk6GJQsqaUBKTNV-1">
          <mxGeometry x="1670" y="600" width="10" height="10" as="geometry" />
        </mxCell>
        <mxCell id="SByoHHInyNc2L9neysQm-199" value="" style="whiteSpace=wrap;html=1;aspect=fixed;" vertex="1" parent="WIyWlLk6GJQsqaUBKTNV-1">
          <mxGeometry x="1680" y="600" width="10" height="10" as="geometry" />
        </mxCell>
        <mxCell id="SByoHHInyNc2L9neysQm-205" value="Fragment Shader" style="rounded=0;whiteSpace=wrap;html=1;" vertex="1" parent="WIyWlLk6GJQsqaUBKTNV-1">
          <mxGeometry x="1330" y="630" width="140" height="50" as="geometry" />
        </mxCell>
        <mxCell id="SByoHHInyNc2L9neysQm-206" value="Fragment 의 조명(Forward lighting) 등 추가연산(투명재질 포함)" style="rounded=0;whiteSpace=wrap;html=1;" vertex="1" parent="WIyWlLk6GJQsqaUBKTNV-1">
          <mxGeometry x="1480" y="630" width="250" height="50" as="geometry" />
        </mxCell>
        <mxCell id="SByoHHInyNc2L9neysQm-207" value="Prepass" style="rounded=0;whiteSpace=wrap;html=1;" vertex="1" parent="WIyWlLk6GJQsqaUBKTNV-1">
          <mxGeometry x="1330" y="690" width="140" height="50" as="geometry" />
        </mxCell>
        <mxCell id="SByoHHInyNc2L9neysQm-208" value="Depth, Normal 등 이후연산을 위해 필요한 데이터 버퍼에 저장/로드" style="rounded=0;whiteSpace=wrap;html=1;" vertex="1" parent="WIyWlLk6GJQsqaUBKTNV-1">
          <mxGeometry x="1480" y="690" width="250" height="50" as="geometry" />
        </mxCell>
        <mxCell id="SByoHHInyNc2L9neysQm-209" value="G-Buffer" style="rounded=0;whiteSpace=wrap;html=1;" vertex="1" parent="WIyWlLk6GJQsqaUBKTNV-1">
          <mxGeometry x="1330" y="750" width="140" height="50" as="geometry" />
        </mxCell>
        <mxCell id="SByoHHInyNc2L9neysQm-210" value="Deferred Lighting 연산을 위해 저장" style="rounded=0;whiteSpace=wrap;html=1;" vertex="1" parent="WIyWlLk6GJQsqaUBKTNV-1">
          <mxGeometry x="1480" y="750" width="250" height="50" as="geometry" />
        </mxCell>
        <mxCell id="SByoHHInyNc2L9neysQm-211" value="Deferred Lighting" style="rounded=0;whiteSpace=wrap;html=1;" vertex="1" parent="WIyWlLk6GJQsqaUBKTNV-1">
          <mxGeometry x="1330" y="810" width="140" height="50" as="geometry" />
        </mxCell>
        <mxCell id="SByoHHInyNc2L9neysQm-212" value="FragementShaded 된 결과에 조명 한번에 처리" style="rounded=0;whiteSpace=wrap;html=1;" vertex="1" parent="WIyWlLk6GJQsqaUBKTNV-1">
          <mxGeometry x="1480" y="810" width="250" height="50" as="geometry" />
        </mxCell>
        <mxCell id="SByoHHInyNc2L9neysQm-213" value="Opaque" style="rounded=0;whiteSpace=wrap;html=1;" vertex="1" parent="WIyWlLk6GJQsqaUBKTNV-1">
          <mxGeometry x="1780" y="450" width="140" height="50" as="geometry" />
        </mxCell>
        <mxCell id="SByoHHInyNc2L9neysQm-214" value="Unity Engine의 불투명객체" style="rounded=0;whiteSpace=wrap;html=1;" vertex="1" parent="WIyWlLk6GJQsqaUBKTNV-1">
          <mxGeometry x="1930" y="450" width="250" height="50" as="geometry" />
        </mxCell>
        <mxCell id="SByoHHInyNc2L9neysQm-215" value="Skybox" style="rounded=0;whiteSpace=wrap;html=1;" vertex="1" parent="WIyWlLk6GJQsqaUBKTNV-1">
          <mxGeometry x="1780" y="510" width="140" height="50" as="geometry" />
        </mxCell>
        <mxCell id="SByoHHInyNc2L9neysQm-216" value="Unity Engine의 배경" style="rounded=0;whiteSpace=wrap;html=1;" vertex="1" parent="WIyWlLk6GJQsqaUBKTNV-1">
          <mxGeometry x="1930" y="510" width="250" height="50" as="geometry" />
        </mxCell>
        <mxCell id="SByoHHInyNc2L9neysQm-217" value="Transparent" style="rounded=0;whiteSpace=wrap;html=1;" vertex="1" parent="WIyWlLk6GJQsqaUBKTNV-1">
          <mxGeometry x="1780" y="570" width="140" height="50" as="geometry" />
        </mxCell>
        <mxCell id="SByoHHInyNc2L9neysQm-218" value="Unity Engine의 투명 객체" style="rounded=0;whiteSpace=wrap;html=1;" vertex="1" parent="WIyWlLk6GJQsqaUBKTNV-1">
          <mxGeometry x="1930" y="570" width="250" height="50" as="geometry" />
        </mxCell>
        <mxCell id="SByoHHInyNc2L9neysQm-219" value="PostProcessing" style="rounded=0;whiteSpace=wrap;html=1;" vertex="1" parent="WIyWlLk6GJQsqaUBKTNV-1">
          <mxGeometry x="1780" y="640" width="140" height="50" as="geometry" />
        </mxCell>
        <mxCell id="SByoHHInyNc2L9neysQm-220" value="후처리" style="rounded=0;whiteSpace=wrap;html=1;" vertex="1" parent="WIyWlLk6GJQsqaUBKTNV-1">
          <mxGeometry x="1930" y="640" width="250" height="50" as="geometry" />
        </mxCell>
        <mxCell id="SByoHHInyNc2L9neysQm-221" value="Frame" style="rounded=0;whiteSpace=wrap;html=1;" vertex="1" parent="WIyWlLk6GJQsqaUBKTNV-1">
          <mxGeometry x="1780" y="710" width="140" height="50" as="geometry" />
        </mxCell>
        <mxCell id="SByoHHInyNc2L9neysQm-222" value="Pixel 출력" style="rounded=0;whiteSpace=wrap;html=1;" vertex="1" parent="WIyWlLk6GJQsqaUBKTNV-1">
          <mxGeometry x="1930" y="710" width="250" height="50" as="geometry" />
        </mxCell>
        <mxCell id="SByoHHInyNc2L9neysQm-223" value="Mesh" style="rounded=0;whiteSpace=wrap;html=1;" vertex="1" parent="WIyWlLk6GJQsqaUBKTNV-1">
          <mxGeometry x="-110" y="420" width="90" height="20" as="geometry" />
        </mxCell>
        <mxCell id="SByoHHInyNc2L9neysQm-224" value="Material" style="rounded=0;whiteSpace=wrap;html=1;" vertex="1" parent="WIyWlLk6GJQsqaUBKTNV-1">
          <mxGeometry x="-110" y="445" width="90" height="20" as="geometry" />
        </mxCell>
        <mxCell id="SByoHHInyNc2L9neysQm-226" style="edgeStyle=orthogonalEdgeStyle;rounded=0;orthogonalLoop=1;jettySize=auto;html=1;entryX=1;entryY=0.5;entryDx=0;entryDy=0;" edge="1" parent="WIyWlLk6GJQsqaUBKTNV-1" source="SByoHHInyNc2L9neysQm-225" target="SByoHHInyNc2L9neysQm-223">
          <mxGeometry relative="1" as="geometry" />
        </mxCell>
        <mxCell id="SByoHHInyNc2L9neysQm-225" value="MeshFilter" style="rounded=0;whiteSpace=wrap;html=1;" vertex="1" parent="WIyWlLk6GJQsqaUBKTNV-1">
          <mxGeometry x="50" y="440" width="90" height="20" as="geometry" />
        </mxCell>
        <mxCell id="SByoHHInyNc2L9neysQm-227" value="MeshRenderer" style="rounded=0;whiteSpace=wrap;html=1;" vertex="1" parent="WIyWlLk6GJQsqaUBKTNV-1">
          <mxGeometry x="50" y="465" width="90" height="20" as="geometry" />
        </mxCell>
        <mxCell id="SByoHHInyNc2L9neysQm-228" style="edgeStyle=orthogonalEdgeStyle;rounded=0;orthogonalLoop=1;jettySize=auto;html=1;entryX=1.037;entryY=0.469;entryDx=0;entryDy=0;entryPerimeter=0;" edge="1" parent="WIyWlLk6GJQsqaUBKTNV-1" source="SByoHHInyNc2L9neysQm-227" target="SByoHHInyNc2L9neysQm-224">
          <mxGeometry relative="1" as="geometry" />
        </mxCell>
        <mxCell id="SByoHHInyNc2L9neysQm-229" value="Rigidbody" style="rounded=0;whiteSpace=wrap;html=1;" vertex="1" parent="WIyWlLk6GJQsqaUBKTNV-1">
          <mxGeometry x="50" y="490" width="90" height="20" as="geometry" />
        </mxCell>
        <mxCell id="SByoHHInyNc2L9neysQm-231" value="Collider" style="rounded=0;whiteSpace=wrap;html=1;" vertex="1" parent="WIyWlLk6GJQsqaUBKTNV-1">
          <mxGeometry x="51" y="515" width="90" height="20" as="geometry" />
        </mxCell>
      </root>
    </mxGraphModel>
  </diagram>
</mxfile>
